<svg width="82.000000" height="71.000000" viewBox="0 0 82 71" fill="none" xmlns="http://www.w3.org/2000/svg" xmlns:xlink="http://www.w3.org/1999/xlink">
	<desc>
			Created with Pixso.
	</desc>
	<defs>
		<filter id="filter_200_15_dd" x="21.969971" y="4.809998" width="44.049988" height="40.190002" filterUnits="userSpaceOnUse" color-interpolation-filters="sRGB">
			<feFlood flood-opacity="0" result="BackgroundImageFix"/>
			<feColorMatrix in="SourceAlpha" type="matrix" values="0 0 0 0 0 0 0 0 0 0 0 0 0 0 0 0 0 0 127 0" result="hardAlpha"/>
			<feOffset dx="5" dy="4"/>
			<feGaussianBlur stdDeviation="0.666667"/>
			<feComposite in2="hardAlpha" operator="out" k2="-1" k3="1"/>
			<feColorMatrix type="matrix" values="0 0 0 0 0.94902 0 0 0 0 0.39216 0 0 0 0 0 0 0 0 0.17 0"/>
			<feBlend mode="normal" in2="BackgroundImageFix" result="effect_dropShadow_1"/>
			<feBlend mode="normal" in="SourceGraphic" in2="effect_dropShadow_1" result="shape"/>
		</filter>
		<linearGradient x1="93.999985" y1="22.500015" x2="-19.000032" y2="20.500015" id="paint_linear_200_16_0" gradientUnits="userSpaceOnUse">
			<stop offset="0.351145" stop-color="#CE5B15"/>
			<stop offset="0.793893" stop-color="#C61B00"/>
		</linearGradient>
	</defs>
	<mask id="mask200_13" mask-type="alpha" maskUnits="userSpaceOnUse" x="0.000000" y="0.000000" width="82.000000" height="71.000000">
		<rect id="фрейм 4" width="82.000000" height="71.000000" fill="#000000" fill-opacity="1.000000"/>
	</mask>
	<g mask="url(#mask200_13)">
		<g filter="url(#filter_200_15_dd)">
			<path id="M" d="M21.97 39L21.97 4.81L30.88 4.81L40.29 27.78L40.68 27.78L50.1 4.81L59.02 4.81L59.02 39L52.01 39L52.01 16.75L51.72 16.75L42.87 38.82L38.09 38.82L29.25 16.67L28.98 16.67L28.98 39L21.97 39Z" fill="url(#paint_linear_200_16_0)" fill-opacity="1.000000" fill-rule="evenodd"/>
		</g>
		<path id="CITY" d="M12.63 41.4C18.5 41.4 22.72 44.67 23.22 50.45L16.82 50.45C16.62 48.34 15.25 46.9 12.82 46.9C9.63 46.9 7.9 49.32 7.9 53.36C7.9 57.63 9.68 59.82 12.77 59.82C15.09 59.82 16.5 58.57 16.82 56.59L23.22 56.63C22.9 60.59 19.45 65.32 12.63 65.32C6.22 65.32 1.4 61.1 1.4 53.36C1.4 45.59 6.36 41.4 12.63 41.4ZM26.09 41.72L32.41 41.72L32.41 65L26.09 65L26.09 41.72ZM41.77 46.82L34.77 46.82L34.77 41.72L55 41.72L55 46.82L48 46.82L48 65L41.77 65L41.77 46.82ZM64.94 57.67L56.41 41.72L63.45 41.72L67.99 51.17L68.18 51.17L72.73 41.72L79.76 41.72L71.23 57.67L71.23 65L64.94 65L64.94 57.67Z" fill="#000000" fill-opacity="1.000000" fill-rule="evenodd"/>
	</g>
</svg>
